<?xml version="1.0"?>
<svg xmlns="http://www.w3.org/2000/svg" height="512px" viewBox="-1 0 450 450.31886" width="512px" class=""><g><path d="m139.121094 355.054688c-.761719 7.851562 4.003906 15.183593 11.488281 17.671874l161.644531 58.832032 45.875-15.488282c1.71875-.585937 3.589844-.5625 5.292969.066407l7.523437 2.726562 27.359376-75.199219-50.242188-18.289062-106.589844 18.824219c-5.628906 1.015625-10.296875 4.9375-12.265625 10.304687-.253906.644532-.4375 1.3125-.550781 1.992188-.03125.269531-.078125.535156-.136719.800781-.359375 1.816406-.371093 3.6875-.039062 5.511719 1.585937 8.664062 9.859375 14.429687 18.535156 12.917968l90.054687-15.878906 2.785157 15.753906-90.097657 15.902344c-17.398437 3.039063-33.980468-8.570312-37.078124-25.960937-.214844-1.457031-.332032-2.925781-.359376-4.398438l-51.90625-18.894531c-4.535156-1.632812-9.5625-1.136719-13.695312 1.34375-4.136719 2.480469-6.9375 6.683594-7.632812 11.453125zm0 0" data-original="#000000" class="active-path" data-old_color="#EFECEC" fill="#F8F8F8"/><path d="m380.503906 439.375 38.308594-105.246094 30.070312 10.945313-38.308593 105.246093zm0 0" data-original="#000000" class="active-path" data-old_color="#EFECEC" fill="#F8F8F8"/><path d="m320.160156 280v-113.230469l-72-52.847656-72 52.847656v113.230469h16v-56c0-4.417969 3.582032-8 8-8h48c4.417969 0 8 3.582031 8 8v56zm-8-56v32c0 4.417969-3.582031 8-8 8h-32c-4.417968 0-8-3.582031-8-8v-32c0-4.417969 3.582032-8 8-8h32c4.417969 0 8 3.582031 8 8zm-64-40c-13.253906 0-24-10.746094-24-24s10.746094-24 24-24 24 10.746094 24 24-10.746094 24-24 24zm0 0" data-original="#000000" class="active-path" data-old_color="#EFECEC" fill="#F8F8F8"/><path d="m280.160156 232h16v16h-16zm0 0" data-original="#000000" class="active-path" data-old_color="#EFECEC" fill="#F8F8F8"/><path d="m256.160156 160c0 4.417969-3.582031 8-8 8-4.417968 0-8-3.582031-8-8s3.582032-8 8-8c4.417969 0 8 3.582031 8 8zm0 0" data-original="#000000" class="active-path" data-old_color="#EFECEC" fill="#F8F8F8"/><path d="m365.597656 177.847656c2.535156-.398437 4.566406-2.300781 5.132813-4.800781.5625-2.503906-.453125-5.09375-2.570313-6.542969l-68.25-48.175781c-9.347656 1.15625-18.707031-2.042969-25.398437-8.671875l-22.398438-22.398438c-5.433593 10.386719-16.230469 16.855469-27.953125 16.742188h-7.464844l-88.535156 62.527344c-2.773437 2.007812-3.476562 5.835937-1.601562 8.695312 1.230468 1.703125 3.203125 2.707032 5.304687 2.699219 1.34375-.003906 2.648438-.429687 3.734375-1.21875l107.851563-79.152344c2.816406-2.070312 6.652343-2.070312 9.46875 0l107.921875 79.203125c1.371094.996094 3.089844 1.394532 4.757812 1.09375zm0 0" data-original="#000000" class="active-path" data-old_color="#EFECEC" fill="#F8F8F8"/><path d="m208.160156 232h32v48h-32zm0 0" data-original="#000000" class="active-path" data-old_color="#EFECEC" fill="#F8F8F8"/><path d="m.160156 0h48v112h-48zm0 0" data-original="#000000" class="active-path" data-old_color="#EFECEC" fill="#F8F8F8"/><path d="m240.558594 11.71875c-7.480469-7.523438-17.664063-11.7460938-28.277344-11.71875h-82.523438l-54.445312 23.351562c-.996094.429688-2.070312.652344-3.152344.648438h-8v64h8c4.417969 0 8 3.582031 8 8 0 12.113281 19.816406 24 40 24s40-11.886719 40-24c0-4.417969 3.582032-8 8-8h56c8.835938 0 16-7.164062 16-16s-7.164062-16-16-16h-72v-16h72c16.195313.046875 29.792969 12.21875 31.625 28.3125l30.03125 30.03125c3.226563 2.945312 7.566406 4.355469 11.910156 3.878906 4.34375-.480468 8.269532-2.804687 10.777344-6.382812 3.582032-6.238282 2.398438-14.125-2.855468-19.039063zm0 0" data-original="#000000" class="active-path" data-old_color="#EFECEC" fill="#F8F8F8"/></g> </svg>
